<svg viewBox="-102.4 -102.4 1228.80 1228.80" class="icon" version="1.1"
    xmlns="http://www.w3.org/2000/svg" fill="#000000" transform="matrix(-1, 0, 0, 1, 0, 0)">
    <g id="SVGRepo_bgCarrier" stroke-width="0">
        <path transform="translate(-102.4, -102.4), scale(38.4)"
            d="M16,27.434515057131648C18.19749378712215,27.313611440704065,20.12003931056666,30.66370746922564,22.11330396239491,29.730705509593328C24.127797476260735,28.78776680128911,23.457935107359088,25.558498170016772,24.35562355851173,23.52343724471427C24.990131670648612,22.08500650168841,25.766036311858038,20.76245992684027,26.644449958209705,19.45859144698787C27.82387216282964,17.707922564020286,30.54249369508329,16.590285471095775,30.44712826487356,14.481545631935328C30.35443055130547,12.431794887140121,27.301448337193225,11.843244152608685,26.221164096437334,10.09880815749057C25.182421389429834,8.421453162010472,26.043076768998286,5.503684333855122,24.306962926965827,4.566446413299937C22.455225416865055,3.566789264463937,20.262408735921483,5.472152798029204,18.1773507586743,5.756370061845148C16.73760199617744,5.952624294736792,15.32126291727249,5.882959159404426,13.87206282899654,5.988842714218704C12.242175067686182,6.10792793337649,10.59544000978335,5.914844814758609,9.04247996744805,6.4237952158794815C7.250967128938995,7.0109263415465986,4.826456872184879,7.402328731868139,4.168393503549394,9.169018804328509C3.4610563827429313,11.06799317180114,5.913234069777003,12.909491707553293,5.872006278949142,14.935504965173369C5.835405774517873,16.734124433360375,3.542902927336488,18.162983705418032,3.949713521504245,19.915375422112337C4.3449245352264105,21.617800375449438,7.001838118671312,21.818222329232455,7.827402671396609,23.358639687092207C8.985690055806943,25.519883149454568,7.385364182562779,29.325936162013363,9.579672483910882,30.42029170164524C11.715120308694008,31.485292073384496,13.617317067431678,27.565607570355564,16,27.434515057131648"
            fill="#ffffff" strokewidth="0"></path>
    </g>
    <g id="SVGRepo_tracerCarrier" stroke-linecap="round" stroke-linejoin="round"></g>
    <g id="SVGRepo_iconCarrier">
        <path
            d="M1001 500.5c0 234.6-219.2 424.8-489.7 424.8-70.2 0-136.9-12.8-197.3-35.9-25.1-9.6-129.6 72.9-152.3 60-25.3-14.5 31.5-124.8 9.7-143C79.1 729.1 21.7 620.6 21.7 500.5c0-234.6 219.2-424.8 489.7-424.8S1001 265.9 1001 500.5z"
            fill="#ffffff"></path>
        <path
            d="M168 964.3c-4.8 0-9.1-1-12.9-3.2-16.4-9.4-13.6-32.5-12.7-40.1 1.7-14 6.2-31 10.5-47.4 3.5-13.4 7.2-27.3 9-38.6 2.2-13.2 0.9-17.7 0.6-18.7-48.2-40.3-86.1-87.7-112.6-140.8-27.7-55.3-41.7-114.2-41.7-175 0-59.4 13.4-117 39.8-171.3 25.5-52.2 61.9-99.1 108.2-139.3 46.2-40.1 100-71.6 159.8-93.5 61.9-22.7 127.6-34.2 195.3-34.2s133.4 11.5 195.3 34.2c59.9 22 113.6 53.4 159.8 93.5 46.4 40.2 82.8 87.1 108.2 139.3 26.4 54.2 39.8 111.9 39.8 171.3 0 59.4-13.4 117-39.8 171.3-25.5 52.2-61.9 99.1-108.2 139.3-46.2 40.1-100 71.6-159.8 93.5-61.9 22.7-127.6 34.2-195.3 34.2-70.2 0-138-12.3-201.8-36.7-1-0.1-6.3-0.1-22.4 7.3-12.3 5.7-27.2 13.9-41.6 21.9-36 20.1-60.3 33-77.5 33zM511.3 89.2c-64.5 0-127.1 11-185.9 32.6-56.8 20.8-107.7 50.6-151.5 88.6-43.6 37.7-77.8 81.7-101.6 130.6-24.6 50.5-37.1 104.2-37.1 159.4 0 56.6 13.1 111.4 38.9 163C99 713.4 134.7 758 180.2 796c17.2 14.4 8.7 46.9-1.2 84.5-3.6 13.5-7.2 27.6-9.1 39-1.7 10.6-1.3 15.7-0.8 17.8 2.6-0.2 8.7-1.5 21.3-7.3 12.5-5.7 27.6-14.1 42.1-22.2 43.6-24.2 69.1-37.6 86.5-30.9 60.7 23.2 125.5 35 192.4 35 64.5 0 127.1-11 185.9-32.6 56.8-20.8 107.7-50.6 151.5-88.6 43.6-37.8 77.8-81.8 101.7-130.8 24.6-50.5 37.1-104.2 37.1-159.4 0-55.3-12.5-108.9-37.1-159.4-23.9-48.9-58.1-92.9-101.7-130.8-43.7-37.9-94.7-67.7-151.5-88.6-58.9-21.6-121.5-32.5-186-32.5z"
            fill="#0F0F0F"></path>
        <path d="M717.4 405.1m-46.6 0a46.6 46.6 0 1 0 93.2 0 46.6 46.6 0 1 0-93.2 0Z" fill="#141414"></path>
        <path
            d="M345.7 442c-7.5 0-13.5-6-13.5-13.5 0-18.3-13.5-33.2-30-33.2s-30 14.9-30 33.2c0 7.5-6 13.5-13.5 13.5s-13.5-6-13.5-13.5c0-33.2 25.6-60.2 57-60.2s57 27 57 60.2c0 7.4-6.1 13.5-13.5 13.5z"
            fill="#141414"></path>
        <path
            d="M396.2 532.7c0 60.1 51.8 109.2 115.2 109.2 63.3 0 115.2-49.1 115.2-109.2v-27.9H396.2v27.9z"
            fill="#443b36"></path>
        <path
            d="M511.3 655.4c-70.9 0-128.7-55.1-128.7-122.7v-41.4H640v41.4c0 67.7-57.7 122.7-128.7 122.7zM409.7 518.3v14.4c0 52.8 45.6 95.7 101.7 95.7s101.7-42.9 101.7-95.7v-14.4H409.7z"
            fill="#141414"></path>
        <path d="M443.2 588.6a68.1 27.1 0 1 0 136.2 0 68.1 27.1 0 1 0-136.2 0Z" fill="#d34931"></path>
        <path d="M175.9 561.8m-42.5 0a42.5 42.5 0 1 0 85 0 42.5 42.5 0 1 0-85 0Z" fill="#007bff"></path>
        <path d="M853.4 561.8m-42.5 0a42.5 42.5 0 1 0 85 0 42.5 42.5 0 1 0-85 0Z" fill="#007bff"></path>
    </g>
</svg>